<?xml version="1.0" encoding="utf-8"?>
<!-- Generator: Adobe Illustrator 21.0.0, SVG Export Plug-In . SVG Version: 6.00 Build 0)  -->
<svg version="1.1" id="Слой_1" xmlns="http://www.w3.org/2000/svg" xmlns:xlink="http://www.w3.org/1999/xlink" x="0px" y="0px"
	 viewBox="0 0 60.3 63.8" style="enable-background:new 0 0 60.3 63.8;" xml:space="preserve">
<style type="text/css">
	.st0{fill:#B2B2B2;}
</style>
<g>
	<path class="st0" d="M46.6,32.6V5H5.4v51.6h19c1.4,0,2.5,1.1,2.5,2.5c0,1.4-1.1,2.5-2.5,2.5H2.9c-1.4,0-2.5-1.1-2.5-2.5V2.5
		C0.4,1.1,1.5,0,2.9,0h46.2c1.4,0,2.5,1.1,2.5,2.5v30.1c0,1.4-1.1,2.5-2.5,2.5C47.8,35.1,46.6,34,46.6,32.6z M59.4,38.6
		c-1-0.9-2.6-0.8-3.5,0.2L42.3,53.9l-6.8-6.6c-1-0.9-2.6-0.9-3.5,0.1c-0.9,1-0.9,2.6,0.1,3.5l8.7,8.3c0.5,0.5,1.1,0.7,1.7,0.7
		c0,0,0,0,0.1,0c0.7,0,1.3-0.3,1.7-0.8l15.3-17C60.5,41.1,60.4,39.5,59.4,38.6z M37.6,14.4H15.3c-1.4,0-2.5,1.1-2.5,2.5
		c0,1.4,1.1,2.5,2.5,2.5h22.3c1.4,0,2.5-1.1,2.5-2.5S38.9,14.4,37.6,14.4z M40,30.5c0-1.4-1.1-2.5-2.5-2.5H15.3
		c-1.4,0-2.5,1.1-2.5,2.5s1.1,2.5,2.5,2.5h22.3C38.9,33,40,31.9,40,30.5z M15.3,41.3c-1.4,0-2.5,1.1-2.5,2.5c0,1.4,1.1,2.5,2.5,2.5
		h6.6c1.4,0,2.5-1.1,2.5-2.5c0-1.4-1.1-2.5-2.5-2.5H15.3z"/>
</g>
</svg>
