<?xml version="1.0" encoding="utf-8"?>
<!-- Generator: Adobe Illustrator 21.0.0, SVG Export Plug-In . SVG Version: 6.00 Build 0)  -->
<svg version="1.1" id="Слой_1" xmlns="http://www.w3.org/2000/svg" xmlns:xlink="http://www.w3.org/1999/xlink" x="0px" y="0px"
	 viewBox="0 0 60.3 63.8" style="enable-background:new 0 0 60.3 63.8;" xml:space="preserve">
<style type="text/css">
	.st0{fill:#B2B2B2;}
</style>
<g>
	<path class="st0" d="M57.8,4.8H46V3c0-1-0.8-1.8-1.8-1.8S42.4,2,42.4,3v1.8H31.9V3c0-1-0.8-1.8-1.8-1.8S28.3,2,28.3,3v1.8H18.3V3
		c0-1-0.8-1.8-1.8-1.8S14.7,2,14.7,3v1.8H2.4c-1,0-1.8,0.8-1.8,1.8v40.7c0,1,0.8,1.8,1.8,1.8h11c1.8,7.6,8.6,13.2,16.7,13.2
		S45,56.6,46.8,49.1h11c1,0,1.8-0.8,1.8-1.8V6.6C59.6,5.6,58.8,4.8,57.8,4.8L57.8,4.8z M14.7,8.4V10c0,1,0.8,1.8,1.8,1.8
		c1,0,1.8-0.8,1.8-1.8V8.4h10.1V10c0,1,0.8,1.8,1.8,1.8s1.8-0.8,1.8-1.8V8.4h10.5V10c0,1,0.8,1.8,1.8,1.8S46,11,46,10V8.4h10v7.4
		H4.2V8.4H14.7z M30.1,58.7c-7.5,0-13.5-6.1-13.5-13.5s6.1-13.5,13.5-13.5s13.5,6.1,13.5,13.5S37.6,58.7,30.1,58.7L30.1,58.7z
		 M47.2,45.5c0-0.1,0-0.2,0-0.3c0-9.4-7.7-17.1-17.1-17.1S13,35.7,13,45.2c0,0.1,0,0.2,0,0.3H4.2V19.4H56v26.1H47.2L47.2,45.5z"/>
	<path class="st0" d="M31.9,45.6v-8.7c0-1-0.8-1.8-1.8-1.8s-1.8,0.8-1.8,1.8v9.5c0,0.5,0.2,0.9,0.5,1.3l4.1,4.1
		c0.4,0.4,0.8,0.5,1.3,0.5c0.5,0,0.9-0.2,1.3-0.5c0.7-0.7,0.7-1.8,0-2.5L31.9,45.6L31.9,45.6z"/>
</g>
</svg>
