<?xml version="1.0" encoding="utf-8"?>
<!-- Generator: Adobe Illustrator 21.0.0, SVG Export Plug-In . SVG Version: 6.00 Build 0)  -->
<svg version="1.1" id="Capa_1" xmlns="http://www.w3.org/2000/svg" xmlns:xlink="http://www.w3.org/1999/xlink" x="0px" y="0px"
	 viewBox="0 0 39.2 47.3" style="enable-background:new 0 0 39.2 47.3;" xml:space="preserve">
<g>
	<path d="M38.6,14.2c-0.4-1-0.9-1.8-1.5-2.3l-9.5-9.5c-0.6-0.6-1.3-1.1-2.3-1.5c-1-0.4-1.9-0.6-2.7-0.6H2.9c-0.8,0-1.5,0.3-2.1,0.9
		C0.3,1.7,0,2.4,0,3.2v41.1c0,0.8,0.3,1.5,0.9,2.1c0.6,0.6,1.3,0.9,2.1,0.9h33.3c0.8,0,1.5-0.3,2.1-0.9c0.6-0.6,0.9-1.3,0.9-2.1
		V16.9C39.2,16.1,39,15.2,38.6,14.2z M23.5,4.4c0.6,0.2,1,0.4,1.3,0.7l9.6,9.6c0.2,0.2,0.5,0.7,0.7,1.3H23.5V4.4z M35.3,43.3H3.9
		V4.2h15.7v12.7c0,0.8,0.3,1.5,0.9,2.1c0.6,0.6,1.3,0.9,2.1,0.9h12.7V43.3z"/>
</g>
</svg>
