<?xml version="1.0" encoding="utf-8"?>
<!-- Generator: Adobe Illustrator 21.0.0, SVG Export Plug-In . SVG Version: 6.00 Build 0)  -->
<svg version="1.1" id="Capa_1" xmlns="http://www.w3.org/2000/svg" xmlns:xlink="http://www.w3.org/1999/xlink" x="0px" y="0px"
	 viewBox="0 0 60 60" style="enable-background:new 0 0 60 60;" xml:space="preserve">
<style type="text/css">
	.st0{fill:#5E5E5E;}
	.st1{fill:#424A60;}
	.st2{fill:#B2ADAD;}
	.st3{fill:#939393;}
	.st4{fill:#7F7F7F;}
</style>
<rect x="16.5" y="31" class="st0" width="10" height="6"/>
<path class="st1" d="M3.5,0c-0.6,0-1,0.4-1,1v3v55c0,0.6,0.4,1,1,1s1-0.4,1-1V4V1C4.5,0.4,4.1,0,3.5,0z"/>
<rect x="4.5" y="4" class="st2" width="22" height="29"/>
<path class="st3" d="M26.5,9v24h-6c-2.2,0-4,1.8-4,4s1.8,4,4,4h4h33l-11-16l11-16H26.5z"/>
<path class="st4" d="M16.5,37c0,2.2,1.8,4,4,4h4h2v-8h-6C18.3,33,16.5,34.8,16.5,37z"/>
</svg>