<?xml version="1.0" encoding="utf-8"?>
<!-- Generator: Adobe Illustrator 21.0.0, SVG Export Plug-In . SVG Version: 6.00 Build 0)  -->
<svg version="1.1" id="Layer_1" xmlns="http://www.w3.org/2000/svg" xmlns:xlink="http://www.w3.org/1999/xlink" x="0px" y="0px"
	 viewBox="0 0 66 74.5" style="enable-background:new 0 0 66 74.5;" xml:space="preserve">
<style type="text/css">
	.st0{fill:#E0E0E0;}
</style>
<g>
	<g>
		<g>
			<path class="st0" d="M62.5,50.7c-1.6-1-3.6-1.1-5.3-0.3l-11.9,5.8v-0.6c0-3-2.3-5.3-5.3-5.3H28.5c-2.3,0-4.7-0.4-7-1.1L14,46.7
				v-3c0-1-0.6-1.7-1.6-1.7H1.9c-1,0-1.9,0.7-1.9,1.7v27.8c0,1,0.9,1.8,1.9,1.8h10.5c1,0,1.6-0.8,1.6-1.8v-2.8l1.3,1
				c3.2,2.6,7.2,4,11.3,4h10.1c3.6,0,7.1-1.1,10.1-3.1l15.9-10.9c1.5-1,2.3-2.7,2.3-4.4C65,53.4,64.1,51.7,62.5,50.7z M10.5,69.8h-7
				V45.5h7V69.8z M60.7,56.8L44.8,67.7c-2.4,1.6-5.2,2.5-8.1,2.5H26.5c-3.3,0-6.6-1.2-9.1-3.2L14,64.2V50.4l6.5,2.1
				c2.6,0.8,5.3,1.3,8,1.3H40c1.1,0,1.8,0.7,1.8,1.8v2.1c-2.1,0.6-7,1.6-12,0.8c-1-0.2-1.8,0.5-2,1.4s0.5,1.9,1.5,2
				c1.5,0.2,3,0.3,4.5,0.3c5.7,0,10.2-1.5,10.5-1.6c0.1,0,0.1,0,0.2-0.1c0,0,0,0,0,0l14.3-7c0.6-0.3,1.3-0.3,1.8,0.1
				c0.6,0.3,0.9,0.9,0.9,1.6C61.5,55.9,61.2,56.4,60.7,56.8z"/>
			<path class="st0" d="M25.3,31.8c4.6,0,8.3-3.7,8.3-8.3s-3.7-8.3-8.3-8.3S17,18.9,17,23.5S20.7,31.8,25.3,31.8z M25.3,18.7
				c2.7,0,4.8,2.2,4.8,4.8s-2.2,4.8-4.8,4.8s-4.8-2.2-4.8-4.8S22.6,18.7,25.3,18.7z"/>
			<path class="st0" d="M39.5,17.6c4.6,0,8.3-3.7,8.3-8.3S44,1,39.5,1s-8.3,3.7-8.3,8.3S34.9,17.6,39.5,17.6z M39.5,4.5
				c2.7,0,4.8,2.2,4.8,4.8s-2.2,4.8-4.8,4.8s-4.8-2.2-4.8-4.8S36.8,4.5,39.5,4.5z"/>
			<path class="st0" d="M39.6,29.5c-4.6,0-8.3,3.7-8.3,8.3s3.7,8.3,8.3,8.3s8.3-3.7,8.3-8.3S44.2,29.5,39.6,29.5z M39.6,42.6
				c-2.7,0-4.8-2.2-4.8-4.8c0-2.7,2.2-4.8,4.8-4.8s4.8,2.2,4.8,4.8C44.4,40.5,42.3,42.6,39.6,42.6z"/>
		</g>
	</g>
</g>
</svg>
