<?xml version="1.0" encoding="utf-8"?>
<!-- Generator: Adobe Illustrator 20.1.0, SVG Export Plug-In . SVG Version: 6.00 Build 0)  -->
<svg version="1.1" id="Слой_1" xmlns="http://www.w3.org/2000/svg" xmlns:xlink="http://www.w3.org/1999/xlink" x="0px" y="0px"
	 viewBox="0 0 260 260" enable-background="new 0 0 260 260" xml:space="preserve">
<g>
	<circle fill="#D96D43" cx="128.8" cy="129.8" r="128.8"/>
	<path fill="#F6E346" d="M128.8,14.1c-33.7,0-63.9,14.6-84.5,37.2h169.5C192.2,28.7,162,14.1,128.8,14.1z"/>
	<path fill="#E8A544" d="M43.3,53.8C34.2,63.9,26.7,75.5,21.1,88h215.3c-5.5-12.6-12.6-24.1-22.1-34.2H43.3z"/>
	<path fill="#F6E346" d="M20.6,91c-1,2.5-2,5-3,7.5h222.9c-1-2.5-2-5-3-7.5H20.6z"/>
	<path fill="#E8A544" d="M18.1,101.1c-2.5,7-4,15.1-5,22.6h233.4c-1-8-2.5-15.6-5-22.6H18.1z"/>
	<path fill="#E8A544" d="M12.6,127.8c0,8,1,16.1,2.5,24.1h228.4c1.5-7.5,2.5-15.6,2.5-24.1C246,127.8,12.6,127.8,12.6,127.8z"/>
	<path fill="#D96D43" d="M15.6,155.9c1,6,3,11.6,5,17.1h217.3c2-5.5,3.5-11.1,5-17.1H15.6z"/>
	<path fill="#CE4B43" d="M20.6,171c1,3,2.5,6,3.5,9.1h212.3c1.5-3,2.5-6,3.5-9.1H20.6z"/>
	<path fill="#CE4B43" d="M128.8,248c36.2,0,68.4-16.6,89.5-42.8H38.7C59.9,230.9,92.1,248,128.8,248z"/>
	<path fill="#D96D43" d="M25.7,183.6c3.5,8.6,8.6,16.1,14.1,23.1h179.6c5.5-7,10.6-14.6,14.6-22.6H25.7V183.6z"/>
</g>
</svg>
