<?xml version="1.0" encoding="utf-8"?>
<!-- Generator: Adobe Illustrator 21.0.0, SVG Export Plug-In . SVG Version: 6.00 Build 0)  -->
<svg version="1.1" id="Слой_1" xmlns="http://www.w3.org/2000/svg" xmlns:xlink="http://www.w3.org/1999/xlink" x="0px" y="0px"
	 viewBox="0 0 39.1 65.8" style="enable-background:new 0 0 39.1 65.8;" xml:space="preserve">
<style type="text/css">
	.st0{fill:#B2B2B2;}
</style>
<g>
	<path class="st0" d="M19.5,0.6C9,0.6,0.4,9.2,0.4,19.7c0,5.4,2.3,10.6,6.3,14.2v29.8c0,0.7,0.4,1.3,0.9,1.6
		c0.3,0.1,0.6,0.2,0.9,0.2c0.3,0,0.7-0.1,1-0.3l9.9-6.3l9.9,6.3c0.5,0.3,1.3,0.4,1.8,0.1c0.6-0.3,0.9-0.9,0.9-1.6V34
		c4.1-3.6,6.5-8.8,6.5-14.3C38.6,9.2,30,0.6,19.5,0.6z M28.5,36.5v23.9l-1.6-1V37.3C27.5,37.1,28,36.8,28.5,36.5z M12,37.2v22.1
		l-1.6,1V36.5C10.9,36.7,11.4,37,12,37.2z M35,19.7c0,8.5-6.9,15.5-15.5,15.5S4,28.3,4,19.7S11,4.3,19.5,4.3S35,11.2,35,19.7z
		 M23.3,38.4v18.7l-2.9-1.8c-0.3-0.2-0.6-0.3-1-0.3c-0.3,0-0.7,0.1-1,0.3l-2.9,1.8V38.4C18.1,38.9,20.8,38.9,23.3,38.4z"/>
	<path class="st0" d="M19.5,5.9c-7.6,0-13.9,6.2-13.9,13.9s6.2,13.9,13.9,13.9s13.9-6.2,13.9-13.9S27.2,5.9,19.5,5.9z M29.8,19.7
		c0,5.7-4.6,10.3-10.3,10.3S9.2,25.4,9.2,19.7S13.8,9.5,19.5,9.5S29.8,14.1,29.8,19.7z"/>
</g>
</svg>
