<?xml version="1.0" encoding="utf-8"?>
<!-- Generator: Adobe Illustrator 21.0.0, SVG Export Plug-In . SVG Version: 6.00 Build 0)  -->
<svg version="1.1" id="Capa_1" xmlns="http://www.w3.org/2000/svg" xmlns:xlink="http://www.w3.org/1999/xlink" x="0px" y="0px"
	 viewBox="0 0 27.3 21.8" style="enable-background:new 0 0 27.3 21.8;" xml:space="preserve">
<style type="text/css">
	.st0{fill:#FFFFFF;}
</style>
<g>
	<g>
		<path class="st0" d="M13.6,8.2c-2.3,0-4.1,1.8-4.1,4.1c0,2.3,1.8,4.1,4.1,4.1c2.3,0,4.1-1.8,4.1-4.1C17.7,10,15.9,8.2,13.6,8.2z
			 M24.6,4.1h-3.3c-0.5,0-0.9-0.3-1.1-0.8l-0.8-2.5C19.2,0.3,18.7,0,18.3,0H9C8.6,0,8.1,0.3,7.9,0.8L7.1,3.3C6.9,3.7,6.5,4.1,6,4.1
			H2.7C1.2,4.1,0,5.3,0,6.8v12.3c0,1.5,1.2,2.7,2.7,2.7h21.8c1.5,0,2.7-1.2,2.7-2.7V6.8C27.3,5.3,26.1,4.1,24.6,4.1z M13.6,19.1
			c-3.8,0-6.8-3.1-6.8-6.8c0-3.8,3.1-6.8,6.8-6.8c3.8,0,6.8,3.1,6.8,6.8C20.5,16,17.4,19.1,13.6,19.1z M23.6,8.7c-0.5,0-1-0.4-1-1
			c0-0.5,0.4-1,1-1c0.5,0,1,0.4,1,1C24.6,8.3,24.1,8.7,23.6,8.7z"/>
	</g>
</g>
</svg>
