<?xml version="1.0" encoding="utf-8"?>
<!-- Generator: Adobe Illustrator 21.0.0, SVG Export Plug-In . SVG Version: 6.00 Build 0)  -->
<svg version="1.1" id="Capa_1" xmlns="http://www.w3.org/2000/svg" xmlns:xlink="http://www.w3.org/1999/xlink" x="0px" y="0px"
	 viewBox="0 0 56.5 56.3" style="enable-background:new 0 0 56.5 56.3;" xml:space="preserve">
<style type="text/css">
	.st0{fill:#FFFFFF;}
</style>
<g>
	<g id="_x33_56._Play">
		<g>
			<path class="st0" d="M52,14.3C44.4,1.1,27.5-3.4,14.2,4.2C1,11.8-3.6,28.8,4.1,42c7.6,13.2,24.6,17.8,37.8,10.1
				C55.1,44.5,59.7,27.6,52,14.3z M39.1,47.3C28.5,53.5,15,49.8,8.9,39.2C2.8,28.6,6.4,15.1,17,9c10.6-6.1,24.1-2.5,30.2,8.1
				C53.3,27.7,49.7,41.2,39.1,47.3z M38,27l-14.5-8.5c-1.3-0.8-2.4-0.2-2.4,1.4l0.1,16.8c0,1.5,1.1,2.1,2.4,1.4L38,29.8
				C39.3,29.1,39.3,27.8,38,27z"/>
		</g>
	</g>
</g>
</svg>
