<?xml version="1.0" encoding="utf-8"?>
<!-- Generator: Adobe Illustrator 21.0.0, SVG Export Plug-In . SVG Version: 6.00 Build 0)  -->
<svg version="1.1" id="Layer_1" xmlns="http://www.w3.org/2000/svg" xmlns:xlink="http://www.w3.org/1999/xlink" x="0px" y="0px"
	 viewBox="0 0 38.6 67.2" style="enable-background:new 0 0 38.6 67.2;" xml:space="preserve">
<g>
	<path d="M30.7,17.9h-3.3v-5.7c0-0.9-0.7-1.6-1.6-1.6h-4.9V3.6h8.6c1.4,0,2.6,1.2,2.6,2.6c0,0.9,0.7,1.6,1.6,1.6s1.6-0.7,1.6-1.6
		c0-3.3-2.6-5.9-5.9-5.9H19.2c-0.9,0-1.6,0.7-1.6,1.6v8.6h-4.9c-0.9,0-1.6,0.7-1.6,1.6v5.7H7.7c-4.2,0-7.7,3.5-7.7,7.7v40
		c0,0.9,0.7,1.6,1.6,1.6h35.1c0.9,0,1.6-0.7,1.6-1.6v-40C38.4,21.3,35,17.9,30.7,17.9z M14.3,17.9v-4h9.8v4H14.3z M35.1,25.6v38.4
		H3.3V25.6c0-2.4,2-4.4,4.4-4.4h23C33.1,21.1,35.1,23.1,35.1,25.6z"/>
	<path d="M26.2,28.3H12.2c-1,0-1.8,0.8-1.8,1.8V55c0,1,0.8,1.8,1.8,1.8h13.9c1,0,1.8-0.8,1.8-1.8V30.1
		C27.9,29.1,27.1,28.3,26.2,28.3z M24.4,31.9v21.3H14V31.9H24.4z"/>
</g>
</svg>
