<?xml version="1.0" encoding="utf-8"?>
<!-- Generator: Adobe Illustrator 21.0.0, SVG Export Plug-In . SVG Version: 6.00 Build 0)  -->
<svg version="1.1" id="Capa_1" xmlns="http://www.w3.org/2000/svg" xmlns:xlink="http://www.w3.org/1999/xlink" x="0px" y="0px"
	 viewBox="0 0 26.5 26.3" style="enable-background:new 0 0 26.5 26.3;" xml:space="preserve">
<style type="text/css">
	.st0{fill:#4D76A1;}
	.st1{fill:#FFFFFF;}
</style>
<g>
	<g>
		<circle id="XMLID_11_" class="st0" cx="13.1" cy="13.1" r="12.5"/>
	</g>
	<path class="st1" d="M12.6,18.6h1c0,0,0.3,0,0.4-0.2c0.1-0.1,0.1-0.4,0.1-0.4s0-1.3,0.6-1.5c0.6-0.2,1.4,1.3,2.2,1.8
		c0.6,0.4,1.1,0.3,1.1,0.3l2.2,0c0,0,1.1-0.1,0.6-1c0-0.1-0.3-0.7-1.6-1.9c-1.4-1.3-1.2-1.1,0.5-3.3c1-1.3,1.4-2.2,1.3-2.5
		c-0.1-0.3-0.9-0.2-0.9-0.2l-2.5,0c0,0-0.2,0-0.3,0.1c-0.1,0.1-0.2,0.3-0.2,0.3s-0.4,1-0.9,1.9c-1.1,1.9-1.5,2-1.7,1.8
		c-0.4-0.3-0.3-1.1-0.3-1.7c0-1.8,0.3-2.6-0.5-2.8c-0.3-0.1-0.5-0.1-1.2-0.1c-0.9,0-1.6,0-2,0.2c-0.3,0.1-0.5,0.4-0.4,0.5
		c0.2,0,0.5,0.1,0.7,0.4c0.3,0.3,0.2,1.1,0.2,1.1s0.1,2.1-0.3,2.4c-0.3,0.2-0.8-0.2-1.8-1.9c-0.5-0.9-0.9-1.8-0.9-1.8S8,9.9,7.9,9.8
		C7.7,9.7,7.5,9.7,7.5,9.7l-2.3,0c0,0-0.4,0-0.5,0.2c-0.1,0.1,0,0.4,0,0.4s1.8,4.3,3.9,6.5C10.5,18.7,12.6,18.6,12.6,18.6L12.6,18.6
		z"/>
</g>
</svg>
