<?xml version="1.0" standalone="no"?>
<!DOCTYPE svg PUBLIC "-//W3C//DTD SVG 20010904//EN"
 "http://www.w3.org/TR/2001/REC-SVG-20010904/DTD/svg10.dtd">
<svg version="1.0" xmlns="http://www.w3.org/2000/svg"
 width="16.000000pt" height="16.000000pt" viewBox="0 0 16.000000 16.000000"
 preserveAspectRatio="xMidYMid meet">
<metadata>
Created by potrace 1.11, written by Peter Selinger 2001-2013
</metadata>
<g transform="translate(0.000000,16.000000) scale(0.002286,-0.002286)"
fill="#000000" stroke="none">
<path d="M3290 6964 c-678 -46 -1257 -244 -1790 -612 -648 -447 -1140 -1128
-1355 -1877 -109 -381 -150 -726 -133 -1135 43 -1063 601 -2068 1488 -2682
437 -302 946 -502 1465 -577 481 -70 958 -40 1427 89 443 121 871 341 1243
637 142 113 417 388 529 528 419 527 665 1119 747 1800 18 144 18 596 1 735
-55 443 -166 819 -351 1187 -163 325 -355 594 -616 862 -283 291 -586 512
-950 691 -374 184 -724 287 -1139 335 -129 15 -463 26 -566 19z m471 -354
c566 -56 1108 -268 1574 -614 162 -120 425 -354 425 -377 0 -5 -954 -9 -2285
-9 -1257 0 -2285 4 -2285 8 0 16 245 249 350 332 273 217 618 406 941 514 203
67 462 123 669 145 122 12 490 13 611 1z m2072 -1122 c165 -185 316 -412 450
-678 l88 -175 -2897 -3 c-1594 -1 -2900 0 -2903 3 -3 3 21 59 53 123 130 262
283 494 480 730 l60 72 2302 0 2302 0 65 -72z m603 -1027 c18 -46 36 -92 39
-102 6 -19 -63 -19 -2999 -19 -1678 0 -3006 4 -3006 9 0 4 14 41 31 82 17 41
35 84 40 97 l9 22 2926 -2 2926 -3 34 -84z m98 -268 c41 -135 106 -453 106
-518 0 -3 -1415 -5 -3145 -5 -2543 0 -3145 2 -3145 13 0 23 50 301 66 362 8
33 26 99 41 148 l26 87 3012 0 3012 0 27 -87z m96 -646 c0 -123 -34 -453 -61
-584 l-10 -53 -3079 0 -3078 0 -11 63 c-28 163 -43 295 -48 435 l-6 152 3146
0 c2534 0 3147 -2 3147 -13z"/>
</g>
</svg>
